<?xml version="1.0" encoding="UTF-8" standalone="no"?>
<!DOCTYPE svg PUBLIC "-//W3C//DTD SVG 1.1//EN" "http://www.w3.org/Graphics/SVG/1.1/DTD/svg11.dtd">
<svg width="100%" height="100%" viewBox="0 0 1152 864" version="1.1" xmlns="http://www.w3.org/2000/svg" xmlns:xlink="http://www.w3.org/1999/xlink" xml:space="preserve" xmlns:serif="http://www.serif.com/" style="fill-rule:evenodd;clip-rule:evenodd;stroke-linejoin:round;stroke-miterlimit:2;">
    <g transform="matrix(1.79012,0,0,1.79012,-157.957,-102.1)">
        <path d="M383.286,211.736L372.076,211.736L372.076,144.406C372.076,137.735 366.66,132.319 359.989,132.319L335.816,132.319C329.145,132.319 323.729,137.735 323.729,144.406L323.729,211.736L258.942,211.736C252.271,211.736 246.856,217.152 246.856,223.823L246.856,247.996C246.856,254.667 252.271,260.083 258.942,260.083L323.729,260.083L323.729,271.292L192.92,271.292C186.249,271.292 180.833,276.708 180.833,283.379L180.833,307.553C180.833,314.223 186.249,319.639 192.92,319.639L323.729,319.639L323.729,330.849L258.942,330.849C252.271,330.849 246.856,336.265 246.856,342.935L246.856,367.109C246.856,373.78 252.271,379.196 258.942,379.196L323.729,379.196L323.729,443.983C323.729,450.653 329.145,456.069 335.816,456.069L359.989,456.069C366.66,456.069 372.076,450.653 372.076,443.983L372.076,379.196L383.286,379.196L383.286,510.005C383.286,516.676 388.701,522.091 395.372,522.091L419.546,522.091C426.216,522.091 431.632,516.676 431.632,510.005L431.632,379.196L442.842,379.196L442.842,443.983C442.842,450.653 448.258,456.069 454.929,456.069L479.102,456.069C485.773,456.069 491.189,450.653 491.189,443.983L491.189,379.196L558.519,379.196C565.19,379.196 570.606,373.78 570.606,367.109L570.606,342.935C570.606,336.265 565.19,330.849 558.519,330.849L491.189,330.849L491.189,319.639L621.998,319.639C628.669,319.639 634.085,314.223 634.085,307.553L634.085,283.379C634.085,276.708 628.669,271.292 621.998,271.292L491.189,271.292L491.189,260.083L558.519,260.083C565.19,260.083 570.606,254.667 570.606,247.996L570.606,223.823C570.606,217.152 565.19,211.736 558.519,211.736L491.189,211.736L491.189,144.406C491.189,137.735 485.773,132.319 479.102,132.319L454.929,132.319C448.258,132.319 442.842,137.735 442.842,144.406L442.842,211.736L431.632,211.736L431.632,80.927C431.632,74.256 426.216,68.84 419.546,68.84L395.372,68.84C388.701,68.84 383.286,74.256 383.286,80.927L383.286,211.736ZM407.459,223.569C449.729,223.569 484.046,255.785 484.046,295.466C484.046,335.147 449.729,367.362 407.459,367.362C365.189,367.362 330.872,335.147 330.872,295.466C330.872,255.785 365.189,223.569 407.459,223.569ZM383.286,270.652C389.658,265.176 398.146,261.833 407.459,261.833C416.772,261.833 425.26,265.176 431.632,270.652L431.632,271.292L432.358,271.292C439.096,277.41 443.286,285.982 443.286,295.466C443.286,304.949 439.096,313.521 432.358,319.639L431.632,319.639L431.632,320.28C425.26,325.755 416.772,329.099 407.459,329.099C398.146,329.099 389.658,325.755 383.286,320.28L383.286,319.639L382.56,319.639C375.822,313.521 371.632,304.949 371.632,295.466C371.632,285.982 375.822,277.41 382.56,271.292L383.286,271.292L383.286,270.652Z" style="fill:rgb(255,68,0);"/>
    </g>
</svg>
